<?xml version="1.0" encoding="UTF-8"?>
<svg id="Layer_1" xmlns="http://www.w3.org/2000/svg" xmlns:xlink="http://www.w3.org/1999/xlink" version="1.1" viewBox="0 0 301.51 315.12">
  <!-- Generator: Adobe Illustrator 30.1.0, SVG Export Plug-In . SVG Version: 2.1.1 Build 136)  -->
  <defs>
    <style>
      .st0 {
        stroke: #c96e1d;
        stroke-miterlimit: 10;
        stroke-width: .5px;
      }

      .st0, .st1 {
        fill: #fbc01a;
      }

      .st2 {
        fill: url(#linear-gradient1);
      }

      .st3 {
        fill: #f9f9fb;
      }

      .st4 {
        fill: url(#linear-gradient);
      }

      .st5 {
        fill: #af3e27;
      }

      .st6 {
        fill: #121643;
      }

      .st7 {
        fill: #fff;
      }

      .st8 {
        fill: #e8b274;
      }

      .st9 {
        fill: #c96e1d;
      }

      .st10 {
        fill: #fefefe;
      }

      .st11 {
        fill: #fae7c6;
      }

      .st12 {
        fill: #b76429;
      }

      .st13 {
        fill: #781e06;
      }
    </style>
    <linearGradient id="linear-gradient" x1="150.76" y1="296.65" x2="150.76" y2="18" gradientUnits="userSpaceOnUse">
      <stop offset="0" stop-color="#3476e1"/>
      <stop offset="1" stop-color="#32a7ee"/>
    </linearGradient>
    <linearGradient id="linear-gradient1" x1="151.04" y1="300.35" x2="151.04" y2="236.95" xlink:href="#linear-gradient"/>
  </defs>
  <path class="st10" d="M150.76,304.03c-80.89,0-146.7-65.81-146.7-146.7S69.87,10.63,150.76,10.63s146.7,65.81,146.7,146.7-65.81,146.7-146.7,146.7Z"/>
  <circle class="st4" cx="150.76" cy="157.33" r="139.32"/>
  <path class="st7" d="M151.04,304.49c-24.23,0-47.07-3.4-64.31-9.56-18.53-6.63-28.74-15.96-28.74-26.28s10.21-19.65,28.74-26.28c17.24-6.17,40.08-9.56,64.31-9.56s47.07,3.4,64.31,9.56c18.53,6.63,28.74,15.96,28.74,26.28s-10.21,19.65-28.74,26.28c-17.24,6.17-40.08,9.56-64.31,9.56Z"/>
  <ellipse class="st2" cx="151.04" cy="268.65" rx="88.63" ry="31.7"/>
  <ellipse class="st6" cx="152.67" cy="268.65" rx="70.46" ry="24.57"/>
  <g>
    <g>
      <g>
        <g>
          <path class="st0" d="M227.25,71.75c-1.15,3.79-5.32,5.66-6.85,6.35-1.95.88-2.31.62-4.35,1.67-1.86.96-2.92,1.87-4.17,2.85-4.71,3.64-7.06,5.45-9.2,5.01-1.34-.28-2.61-1.4-3.39-2.79-.18-.32-.34-.67-.47-1.01-.26-.73-.39-1.49-.33-2.21.37-4.34,7.35-7.09,11.7-7.85,4.49-.78,5.42.69,9.18-.67,4.4-1.6,6.8-4.94,7.85-4.18.71.51.14,2.4,0,2.84Z"/>
          <path class="st9" d="M211.55,78.62c-1.94,2.03-4.23,3.63-6.81,4.73-1.71.74-3.57,1.24-5.43,1.48-.18-.32-.34-.67-.47-1.01,1.88-.21,3.75-.7,5.48-1.45,2.41-1.03,4.65-2.58,6.45-4.49.2-.21.54-.22.75-.02.21.2.22.54.02.75Z"/>
        </g>
        <g>
          <path class="st0" d="M214,51.17c-.17,3.96-3.74,6.81-5.04,7.86-1.67,1.34-2.08,1.18-3.79,2.71-1.56,1.4-2.36,2.54-3.33,3.8-3.65,4.7-5.47,7.04-7.65,7.15-1.37.07-2.88-.7-3.98-1.86-.25-.26-.49-.56-.7-.86-.44-.64-.75-1.35-.87-2.06-.73-4.29,5.35-8.7,9.37-10.53,4.15-1.88,5.42-.69,8.73-2.94,3.86-2.65,5.35-6.49,6.56-6.01.81.31.73,2.29.71,2.75Z"/>
          <path class="st9" d="M200.52,61.74c-1.37,2.45-3.19,4.57-5.42,6.28-1.47,1.15-3.14,2.09-4.89,2.79-.25-.26-.49-.56-.7-.86,1.77-.68,3.45-1.61,4.94-2.77,2.08-1.6,3.85-3.66,5.13-5.96.14-.26.47-.35.72-.21.26.14.35.47.21.72Z"/>
        </g>
        <g>
          <path class="st0" d="M197.52,39.05c.2,3.96-3.1,7.13-4.3,8.29-1.54,1.48-1.96,1.37-3.53,3.04-1.43,1.54-2.12,2.75-2.96,4.09-3.2,5.02-4.8,7.51-6.96,7.82-1.36.2-2.93-.43-4.13-1.48-.28-.24-.54-.51-.78-.79-.5-.6-.87-1.27-1.06-1.97-1.12-4.21,4.52-9.16,8.36-11.35,3.96-2.25,5.33-1.18,8.42-3.73,3.6-2.99,4.73-6.95,5.98-6.59.84.24.94,2.21.96,2.67Z"/>
          <path class="st9" d="M185.06,50.82c-1.14,2.57-2.76,4.85-4.81,6.76-1.36,1.28-2.94,2.37-4.61,3.23-.28-.24-.54-.51-.78-.79,1.7-.84,3.29-1.92,4.67-3.22,1.92-1.78,3.5-4,4.56-6.4.12-.27.43-.39.7-.27.27.12.39.43.27.7Z"/>
        </g>
        <g>
          <path class="st0" d="M170.75,26.84c1.84,3.51.18,7.77-.42,9.33-.77,1.99-1.21,2.06-1.92,4.24-.65,1.99-.77,3.38-.97,4.95-.8,5.9-1.2,8.84-3.04,10.02-1.15.75-2.84.84-4.37.39-.35-.1-.71-.24-1.04-.39-.7-.33-1.33-.79-1.79-1.35-2.78-3.35.26-10.21,2.83-13.81,2.65-3.71,4.34-3.31,6.07-6.92,2.01-4.23,1.38-8.3,2.66-8.49.86-.14,1.78,1.61,1.99,2.02Z"/>
          <path class="st9" d="M164.38,42.75c.05,2.81-.47,5.56-1.53,8.15-.7,1.73-1.67,3.38-2.83,4.87-.35-.1-.71-.24-1.04-.39,1.19-1.47,2.18-3.13,2.89-4.88,1-2.42,1.5-5.1,1.45-7.73,0-.29.23-.54.52-.54.29,0,.54.23.54.52Z"/>
        </g>
        <g>
          <path class="st0" d="M136.82,26.05c-2.36,3.18-1.38,7.65-1.03,9.28.45,2.09.87,2.23,1.25,4.49.33,2.07.23,3.46.19,5.04-.12,5.95-.18,8.92,1.45,10.37,1.02.92,2.68,1.27,4.26,1.06.36-.04.74-.12,1.08-.22.74-.22,1.43-.57,1.97-1.05,3.27-2.88,1.32-10.13-.66-14.08-2.04-4.07-3.78-3.94-4.93-7.78-1.34-4.49-.08-8.41-1.31-8.8-.83-.27-2.01,1.32-2.28,1.69Z"/>
          <path class="st9" d="M140.65,42.76c-.48,2.77-.4,5.56.26,8.29.43,1.82,1.13,3.6,2.04,5.24.36-.04.74-.12,1.08-.22-.95-1.64-1.67-3.43-2.1-5.27-.61-2.55-.69-5.27-.24-7.86.05-.29-.14-.57-.43-.62-.29-.05-.57.14-.62.43Z"/>
        </g>
        <g>
          <path class="st0" d="M110.14,34.91c-1.42,3.7.72,7.74,1.5,9.22,1,1.89,1.44,1.91,2.41,3.99.88,1.9,1.15,3.27,1.54,4.81,1.48,5.76,2.22,8.64,4.18,9.6,1.23.61,2.92.5,4.39-.12.34-.14.68-.32.98-.51.66-.41,1.23-.94,1.62-1.54,2.37-3.65-1.45-10.11-4.41-13.38-3.06-3.37-4.7-2.78-6.84-6.17-2.49-3.96-2.33-8.08-3.63-8.12-.87-.03-1.58,1.81-1.74,2.24Z"/>
          <path class="st9" d="M118.31,49.98c.28,2.79,1.11,5.46,2.47,7.92.9,1.64,2.05,3.17,3.37,4.5.34-.14.68-.32.98-.51-1.36-1.32-2.53-2.85-3.44-4.51-1.27-2.29-2.08-4.89-2.34-7.51-.03-.29-.29-.51-.58-.48-.29.03-.51.29-.48.58Z"/>
        </g>
        <g>
          <path class="st0" d="M88.87,51.24c-.36,3.94,2.8,7.25,3.95,8.46,1.47,1.55,1.9,1.45,3.4,3.19,1.36,1.59,2,2.84,2.79,4.21,2.99,5.15,4.48,7.71,6.63,8.1,1.35.25,2.95-.31,4.19-1.31.29-.23.56-.49.81-.76.52-.58.93-1.23,1.14-1.92,1.29-4.16-4.14-9.34-7.88-11.68-3.86-2.42-5.28-1.41-8.26-4.08-3.47-3.14-4.44-7.14-5.7-6.83-.85.2-1.03,2.17-1.07,2.63Z"/>
          <path class="st9" d="M100.83,63.52c1.03,2.61,2.55,4.96,4.53,6.95,1.31,1.33,2.84,2.49,4.47,3.42.29-.23.56-.49.81-.76-1.66-.91-3.21-2.06-4.53-3.41-1.85-1.86-3.33-4.14-4.29-6.59-.11-.27-.42-.41-.69-.3-.27.11-.41.42-.3.69Z"/>
        </g>
        <g>
          <path class="st0" d="M75.83,70.52c.63,3.91,4.51,6.33,5.93,7.21,1.81,1.13,2.2.93,4.08,2.24,1.72,1.2,2.64,2.25,3.75,3.38,4.18,4.24,6.26,6.35,8.44,6.2,1.37-.09,2.78-1.03,3.73-2.31.22-.29.43-.62.6-.93.36-.69.59-1.43.62-2.15.22-4.35-6.33-8.01-10.54-9.35-4.34-1.38-5.46-.05-9.01-1.9-4.15-2.18-6.08-5.81-7.22-5.2-.77.41-.46,2.36-.38,2.81Z"/>
          <path class="st9" d="M90.46,79.43c1.65,2.27,3.71,4.17,6.12,5.6,1.6.96,3.37,1.71,5.18,2.2.22-.29.43-.62.6-.93-1.84-.46-3.62-1.2-5.24-2.17-2.25-1.34-4.26-3.18-5.79-5.31-.17-.24-.5-.29-.74-.12-.24.17-.29.5-.12.74Z"/>
        </g>
        <path class="st9" d="M152.88,130.11c-1.41,0-2.92-.06-4.5-.17-.98-.07-1.77-.85-1.85-1.83-2.28-27.88-23.67-30.99-48.43-34.59l-3.07-.45c-.6-.09-1.12-.44-1.43-.96-.31-.52-.37-1.15-.16-1.71,7.73-21.08,25.54-36.59,46.48-40.48,3.86-.72,7.78-1.08,11.66-1.08,26.63,0,49.17,16.8,56.08,41.8.16.57.06,1.17-.28,1.66-.33.49-.86.8-1.44.86-22.97,2.41-26.63,11.76-30.17,20.8-3.11,7.94-6.32,16.15-22.88,16.15h0Z"/>
        <path class="st1" d="M140.28,51.89c-20.49,3.81-37.68,19.33-44.96,39.2,26.21,3.86,50.69,6.18,53.2,36.85,39.23,2.88,10.15-31.84,57.2-36.77-7.9-28.59-36.17-44.72-65.44-39.28Z"/>
        <path class="st9" d="M161.49,96.27c-.88,3.29-4.55,9.51-10.29,9.58-5.74-.08-9.41-6.29-10.29-9.58,3.43,1.73,6.86,2.45,10.29,2.42,3.43.03,6.86-.69,10.29-2.42ZM132.76,73.65c-2.08.07-5.24,2.4-7.75,5.51l17.05.16c-2.56-4.01-5.73-5.78-9.29-5.67ZM123.24,71.58l17.12-1.57c-.97-1.49-5.12-4.1-8.02-4.44-2.68-.32-7.53,3.44-9.1,6.02ZM158.99,79.32l17.05-.16c-2.52-3.1-5.68-5.44-7.75-5.51-3.56-.11-6.73,1.65-9.29,5.67ZM168.71,65.56c-2.9.35-7.05,2.96-8.02,4.44l17.12,1.57c-1.56-2.57-6.42-6.34-9.1-6.02ZM154.44,78.33l.02,12.84-2.66-.57c-.4-.08-.8-.08-1.2,0l-2.66.57.02-12.84-4.55,13.27c1.53.88,4.97,2.54,6.96,3.22.22.09.52.27.83.23.31.04.61-.14.83-.23,1.99-.68,5.44-2.34,6.96-3.22l-4.55-13.27Z"/>
      </g>
      <path class="st6" d="M263.78,202.58c.04-.72.04-1.45,0-2.17-.31-5.01-2.57-9.94-4.49-14.12-1.5-3.27-3.05-6.65-4.21-10.37l-20.63-66.45c-1.56-5.04-5.16-13.77-11.64-15.64-5.97-1.72-13.14-2.67-20.16-2.67-2.12,0-4.2.09-6.19.26-13.89,1.2-19.75,11.83-22.95,19.71l-4.12,10.16c-1.86,2.1-4.84,4.6-9.13,5.55-4.08.91-8.36.18-12.11-1.86.06-.76.09-1.54.08-2.34-.12-8.29-4.08-14.16-5.38-15.87-7.94-10.44-23.4-15.95-44.7-15.95-18.4,0-36.29,3.99-46.9,7.72-4.86,1.71-10.24,8.42-10.86,13.56-.56,4.64.6,7.95,2.21,10.38-1.17,1.91-1.99,3.92-2.21,5.73-1.05,8.64,3.89,12.72,6.54,14.92.2.17.37.31.53.44-.18,2.34-.35,4.67-.51,6.96-.97,13.38-1.89,26.01-3.82,38.89-.13.58-1.01,2.15-1.6,3.19-1.76,3.14-4.2,7.51-3.76,12.4v13.77c-.07.75-.07,1.52,0,2.31v.19s.02,0,.02,0c.14,1.41.52,2.85,1.23,4.32,2.42,5,7.66,11.03,15.11,12.96,6.02,1.55,10.94,2.31,15.04,2.31,10.24,0,14.65-4.74,18.19-8.54,2.12-2.27,3.94-4.24,7.4-5.71,9.79-4.16,19.41-6.44,29.59-8.85,4.6-1.09,9.35-2.21,14.18-3.53,1.68-.46,3.2-1.14,4.56-2,1.2,1.34,2.9,2.15,4.72,2.22l11.22.45c6.74.27,12.2.67,20.15,1.96.36.06.72.09,1.07.09,2.61,0,5.02-1.52,6.11-3.96,0,0,27.73,14.55,43.16,23.12,2.23,1.24,4.85,1.86,7.8,1.86,6.57,0,14.13-3.22,18.38-6.21,6.55-4.61,8.39-9.89,8.1-15.1v-14.07Z"/>
      <path class="st7" d="M92.12,204.34c-14.25,6.06-8.89,18.71-36.33,11.62-5.22-1.35-9.06-5.89-10.75-9.39-2.67-5.51,4.02-11.61,4.7-16.12,2.99-20.04,3.62-39.67,5.55-60.42.85-9.1-9.44-7.34-8.25-17.12.3-2.5,3.86-7.14,6.43-8.05,22.29-7.84,69.05-13.72,84.04,5.97,7.88,10.35,3.22,23.43-6.01,30.81-1.36,1.09-3.44,3.37-4.35,4.45,9.29,4.64,16.59,10.17,18.52,18.14,2.26,9.34.54,24.84-8.92,27.43-15.24,4.17-29.69,6.32-44.62,12.67ZM109.21,132.52c.73-2.34-.43-8.28-2.57-9.68-4.99-3.29-11.56-2.77-17.23-.99l-.3,18.61c8.17,2.2,17.72-.27,20.1-7.93ZM106.61,181.66c6.63-3.69,7.51-13.11,1.81-17.11s-12.75-3.31-19.47-1.17c-.52,6.41-.79,13.05.11,19.28,3.68,2.97,12.7,1.71,17.56-1ZM232.75,214.13c-15.28-8.48-15.94-19-19.86-31.57l-26.91-1.29-5.76,12.87c-7.99-1.29-13.62-1.75-20.95-2.04l-11.22-.45,31.66-77.99c3.17-7.81,7.73-14.72,17.32-15.55,7.47-.65,16.5.04,23.92,2.18,3.23.93,6.12,8.03,7.1,11.19l20.63,66.45c4.65,14.97,14.69,24.13,3.15,32.25-4.11,2.89-13.81,6.89-19.07,3.97ZM210.05,158.51l-8.28-28.5c-4.39,11.46-6.44,17.73-9.67,28.42,7.32,1.12,10.78,1.12,17.95.08Z"/>
    </g>
    <g>
      <path class="st12" d="M221.73,262.3c0,15.73-29.9,28.02-68.38,28.02h-.07c-33.89,0-61.12-9.53-67.13-22.55.92,1.04,1.91,2.03,2.88,3,2.9,2.95,5.59,4.95,9.14,3.38,5.2-2.06,3.7,1.83,6.84,3.68,1.31.49,3.56-.82,5.33-.68,3.15.23,4.38,4.03,6.49,6.01,3.67,3.35,8.45,4.33,12.14.5,1.99-1.52,5.24-5.31,7.55-2.66.96,1.2,1.73,3.86,3.1,4.82.92.71,2.09.58,3.08.04,2.11-1.01,4.16-4.24,6.68-2.85.97.48,1.81,1.37,2.87,1.59,1.85.41,6.1-4.05,6.25-5.83-.41-2.03-5.81-1.42-7.65-1.72-6.48-.11-12.62-1.52-19.26-2.51-4.13-.61-8.3-1.17-12.3-2.38-3.32-.98-6.28-2.44-9.3-3.23-5.16-1.43-10.81-3.33-15.82-7.47-2.78-2.1-5.08-5.28-8.07-6.93.1-.27.2-.51.31-.72,6.78-12.82,33.46-20.45,66.87-20.45h.07c33.41,0,60.09,7.63,66.87,20.45,1.03,1.95,1.51,6.42,1.51,8.49Z"/>
      <path class="st13" d="M220.59,244.75c0,1.45-.4,2.87-1.13,4.25.73,1.38,1.13,2.8,1.13,4.25,0,12.91-30.09,23.38-67.24,23.39h-.07c-37.15-.01-67.24-10.48-67.24-23.39,0-.47.04-.94.13-1.41.11-.63.29-2.24.54-3.45.14-.65.29-1.19.46-1.39-.73-.88-1.13-1.79-1.13-2.72,0-.68.21-1.35.62-2.01.17-.28.37-1.53.61-1.96-.8-1.44-1.23-2.93-1.23-4.44,0-12.91,30.09-23.38,67.24-23.4h.07c37.15.02,67.24,10.49,67.24,23.4,0,1.51-.43,3-1.23,4.44.8,1.44,1.23,2.92,1.23,4.44Z"/>
      <path class="st8" d="M220.59,220.19c0,5.35-4.96,10.3-13.35,14.28t-.02.01c-4.48,4.03-9.7,7.34-11.52,8.49-5.88,3.71-11.25,6.22-15.37,7.91l-.04.21c-8.22,1.39-17.31,2.16-26.94,2.16h-.07c-38.48,0-68.38-12.29-68.38-28.02,0-2.07.48-6.54,1.51-8.49,6.43-12.15,30.73-19.64,61.69-20.38.57-.01,1.14-.03,1.72-.04.49-.01.99-.01,1.49-.02.66-.01,1.31-.01,1.97-.01h.07c.66,0,1.31,0,1.97.01.5,0,.99,0,1.49.02.57.01,1.15.03,1.71.04,30.83.74,55.06,8.16,61.61,20.22-.05.11-.1.23-.16.35.41,1.06.62,2.15.62,3.26Z"/>
      <path class="st11" d="M220.59,220.19c0,5.35-4.96,10.3-13.35,14.28t-.02.01c-12.26,5.82-31.82,9.59-53.87,9.6h-.07c-37.15-.01-67.24-10.71-67.24-23.89s27.34-22.87,62.06-23.83c.57-.01,1.14-.03,1.72-.04.49-.01.99-.01,1.49-.02.66-.01,1.31-.01,1.97-.01h.07c.66,0,1.31,0,1.97.01.5,0,.99,0,1.49.02.57.01,1.15.03,1.71.04,31.68.87,57.2,9.52,61.45,20.57.41,1.06.62,2.15.62,3.26Z"/>
      <path class="st5" d="M171.54,259.39c.16,1.37-25.98,6.5-51.14,3.72-8.26-.91-16.75-2.71-25.26-8.08-3.76-2.37-6.56-4.83-8.42-6.65.14-.65.29-1.19.46-1.39-.15-.18-.28-.36-.39-.54-.49-.71-.74-1.44-.74-2.18,0-.3.04-.6.13-.9.1-.37.26-.74.49-1.11,4.67,2.35,9.73,6.73,17.59,9.82,35.13,13.81,67.11,5.76,67.29,7.3Z"/>
      <path class="st12" d="M221.73,225.23c0,11.79-16.81,21.65-41.44,25.86l.04-.21c4.12-1.69,9.49-4.2,15.37-7.91,1.82-1.15,7.04-4.46,11.52-8.49t.02-.01c8.39-3.98,13.35-8.93,13.35-14.28,0-1.11-.21-2.2-.62-3.26.06-.12.11-.24.16-.35.03.05.06.11.09.16,1.03,1.95,1.51,6.42,1.51,8.49Z"/>
      <path class="st8" d="M158.5,278.77c-.15,1.78-4.4,6.24-6.25,5.83-1.06-.22-1.9-1.11-2.87-1.59-2.52-1.39-4.57,1.84-6.68,2.85-.99.54-2.16.67-3.08-.04-1.37-.96-2.14-3.62-3.1-4.82-2.31-2.65-5.56,1.14-7.55,2.66-3.69,3.83-8.47,2.85-12.14-.5-2.11-1.98-3.34-5.78-6.49-6.01-1.77-.14-4.02,1.17-5.33.68-3.14-1.85-1.64-5.74-6.84-3.68-3.55,1.57-6.24-.43-9.14-3.38-.97-.97-1.96-1.96-2.88-3-.82-1.76-1.25-3.59-1.25-5.47s.38-5.6,1.2-7.77c2.99,1.65,5.29,4.83,8.07,6.93,5.01,4.14,10.66,6.04,15.82,7.47,3.02.79,5.98,2.25,9.3,3.23,4,1.21,8.17,1.77,12.3,2.38,6.64.99,12.78,2.4,19.26,2.51,1.84.3,7.24-.31,7.65,1.72Z"/>
      <g>
        <path class="st3" d="M116.6,222.31c1.22.77,2.76.93,3.97,2.81-2.14,1.47-4.38.16-6.03-.91-1.88-1.22-3.05-3.97-1.47-6.21.99-1.4,6.17.76,6.52,2.5.18.9-.87.82-2.98,1.81Z"/>
        <path class="st3" d="M110.55,224.24c-1.47.73-2.31-1.41-2.65-2.25-.39-.94-.73-3.37,1.1-3.6,2.1-.27,3.97,4.64,1.55,5.85Z"/>
        <path class="st3" d="M175.49,215.72l-4.87.08-.33-5.75c-2.91-.32-5.67.29-8.2-.64-.69-.25-.24-2.18.04-2.69s1.48-1.27,2.29-.97c4.63,1.74,18.12-2.89,22.44.73l6.55,5.49c1.94,1.63,5.41,2.85,6.82,5.3-4,5.25-4.94-7.17-8.98-4.25,1.82,1.11,3.28,1.51,3.33,3.37.07,2.78-5.86,9.09-10.14,6.89,2.23-.74,2.47-1.8.73-2.11-5.91.26-1.04-7.37-6.95-11.91-.89,2.71-1.68,4.55-2.74,6.47Z"/>
        <path class="st8" d="M175.49,215.72c.67,1.12.53,2.06-.23,2.38-1.53.66-4.12-.29-4.9-1.06-.27-.27.03-.74.26-1.25l4.87-.08Z"/>
        <circle class="st3" cx="168.59" cy="228.38" r="1.26"/>
        <path class="st3" d="M156.44,222.71c.25-1.34-9.91,1.7-7.21.38-.63.31.38,2.03.02,2.92-.71,1.75-5.22,1.11-5.62-.91-1.15-5.93,9.76-4.62,3.94-11.12,2.77.24,4.48,2.03,6.83,1.62-1.25-3.04.67-5.11,2.25-4.98,2.81.24,5.35.91,5.12,4.33.89,1.23,3.72.59,5.44.52-.69,7.45,2.92,4.6,2.09,10.03-3.85,2.13-10.24.47-12.23-3.23.33-2.37-1.29-2.59-.63.44Z"/>
        <path class="st8" d="M136.97,218.45c-1.1-1.12-2.67-3.21-1.32-4.04,1.43-.88,3.03-.47,4.32.51.76.57.91,1.37.43,2.16-.92,1.55-2.15,2.66-3.43,1.37Z"/>
        <path class="st8" d="M135.93,218.95c-1.71,3.43-5.99,1.7-7.6-.8,2.65-.71,4.96-.86,7.6.8Z"/>
      </g>
    </g>
  </g>
</svg>